<svg xmlns="http://www.w3.org/2000/svg" viewBox="0 0 50 50" xml:space="preserve"><path d="M48.3 3.4c-.6-.3-1.3-.1-1.8.3L42.4 8l-.6-.5C37.3 3.1 31.3.7 25 .7 18.5.7 12.4 3.2 7.8 7.8S.7 18.5.7 25s2.5 12.6 7.1 17.2 10.7 7.1 17.2 7.1c6 0 11.8-2.2 16.3-6.3.1-.1.1-.2.1-.3 0-.1 0-.2-.1-.3l-4-4c-.2-.2-.4-.2-.5 0-3.2 2.9-7.4 4.4-11.7 4.4-4.8 0-9.3-1.9-12.6-5.2-3.3-3.3-5.2-7.8-5.2-12.4 0-4.8 1.8-9.3 5.2-12.7C15.8 9 20.2 7.2 25 7.2h.1c4.5 0 8.7 1.7 12 4.8l.6.6-4.7 4.8c-.5.5-.6 1.1-.3 1.8.3.6.8 1 1.5 1h13.6c.9 0 1.6-.7 1.6-1.6V4.9c-.1-.6-.5-1.2-1.1-1.5z" fill="#fff"/></svg>